<svg xmlns="http://www.w3.org/2000/svg" viewBox="0 0 205.29 220.65"><defs><style>.cls-1{fill:#008080;}.cls-2{fill:#fff;stroke:#fff;stroke-miterlimit:10;stroke-width:13px;}</style></defs><title>Asset 2</title><g id="Layer_2" data-name="Layer 2"><g id="Layer_1-2" data-name="Layer 1"><polygon class="cls-1" points="0 36.4 14.9 173.74 102.64 220.65 190.39 174.84 205.29 36.4 102.64 0 0 36.4"/><path class="cls-2" d="M45.35,148.78,20.16,71.87H33.71l11.78,38.91c2.95,9.59,5.6,19.17,7.37,26.59h.29c1.62-7.65,4.72-16.78,8.1-26.7l13.26-38.8h13.4l12.08,39a241,241,0,0,1,6.92,26.37h.3c2.06-8.45,4.86-17,8-26.59l13.11-38.8h13.11l-28.13,76.91H99.84l-12.52-40a187.76,187.76,0,0,1-6.48-25.11h-.29a196.78,196.78,0,0,1-7.66,25.11L58.75,148.78Z"/><path class="cls-2" d="M152.93,71.87h32.19V80.2H157v25.56h24.84V114H157v34.8h-4.07Z"/></g></g></svg>